<?xml version="1.0" encoding="utf-8"?>
<!-- Generator: Adobe Illustrator 18.1.1, SVG Export Plug-In . SVG Version: 6.00 Build 0)  -->
<!DOCTYPE svg PUBLIC "-//W3C//DTD SVG 1.1//EN" "http://www.w3.org/Graphics/SVG/1.1/DTD/svg11.dtd">
<svg version="1.1" id="Layer_1" xmlns="http://www.w3.org/2000/svg" xmlns:xlink="http://www.w3.org/1999/xlink" x="0px" y="0px"
	 viewBox="0 0 60 80" enable-background="new 0 0 60 80" xml:space="preserve">
<path fill="#E67E22" d="M30.1,20c-7.7,0-14.7,2.9-20.1,7.6V0h0C4.5,0,0,4.5,0,10l0,39.3C0,66,13.3,80,29.9,80
	c7.7,0,14.7-2.9,20.1-7.6V80h0c5.5,0,10-4.5,10-10V50.7C60,34,46.7,20,30.1,20z M30,70c-11,0-20-9-20-20s9-20,20-20s20,9,20,20
	S41,70,30,70z"/>
</svg>
